<svg width="160" height="48" viewBox="0 0 160 48" fill="none" xmlns="http://www.w3.org/2000/svg">
<path d="M0 4C0 1.79086 1.79086 0 4 0H156C158.209 0 160 1.79086 160 4V44C160 46.2091 158.209 48 156 48H4C1.79086 48 0 46.2091 0 44V4Z" fill="#673EE6"/>
<path fill-rule="evenodd" clip-rule="evenodd" d="M24 10C16.265 10 10 16.265 10 24C10 30.195 14.0075 35.4275 19.5725 37.2825C20.2725 37.405 20.535 36.985 20.535 36.6175C20.535 36.285 20.5175 35.1825 20.5175 34.01C17 34.6575 16.09 33.1525 15.81 32.365C15.6525 31.9625 14.97 30.72 14.375 30.3875C13.885 30.125 13.185 29.4775 14.3575 29.46C15.46 29.4425 16.2475 30.475 16.51 30.895C17.77 33.0125 19.7825 32.4175 20.5875 32.05C20.71 31.14 21.0775 30.5275 21.48 30.1775C18.365 29.8275 15.11 28.62 15.11 23.265C15.11 21.7425 15.6525 20.4825 16.545 19.5025C16.405 19.1525 15.915 17.7175 16.685 15.7925C16.685 15.7925 17.8575 15.425 20.535 17.2275C21.655 16.9125 22.845 16.755 24.035 16.755C25.225 16.755 26.415 16.9125 27.535 17.2275C30.2125 15.4075 31.385 15.7925 31.385 15.7925C32.155 17.7175 31.665 19.1525 31.525 19.5025C32.4175 20.4825 32.96 21.725 32.96 23.265C32.96 28.6375 29.6875 29.8275 26.5725 30.1775C27.08 30.615 27.5175 31.455 27.5175 32.7675C27.5175 34.64 27.5 36.145 27.5 36.6175C27.5 36.985 27.7625 37.4225 28.4625 37.2825C31.2417 36.3442 33.6567 34.558 35.3676 32.1753C37.0785 29.7926 37.9992 26.9333 38 24C38 16.265 31.735 10 24 10Z" fill="white"/>
<path d="M55.55 11.12C55.39 10.8267 55.17 10.6033 54.89 10.45C54.61 10.2967 54.2833 10.22 53.91 10.22C53.4967 10.22 53.13 10.3133 52.81 10.5C52.49 10.6867 52.24 10.9533 52.06 11.3C51.88 11.6467 51.79 12.0467 51.79 12.5C51.79 12.9667 51.88 13.3733 52.06 13.72C52.2467 14.0667 52.5033 14.3333 52.83 14.52C53.1567 14.7067 53.5367 14.8 53.97 14.8C54.5033 14.8 54.94 14.66 55.28 14.38C55.62 14.0933 55.8433 13.6967 55.95 13.19H53.55V12.12H57.33V13.34C57.2367 13.8267 57.0367 14.2767 56.73 14.69C56.4233 15.1033 56.0267 15.4367 55.54 15.69C55.06 15.9367 54.52 16.06 53.92 16.06C53.2467 16.06 52.6367 15.91 52.09 15.61C51.55 15.3033 51.1233 14.88 50.81 14.34C50.5033 13.8 50.35 13.1867 50.35 12.5C50.35 11.8133 50.5033 11.2 50.81 10.66C51.1233 10.1133 51.55 9.69 52.09 9.39C52.6367 9.08333 53.2433 8.93 53.91 8.93C54.6967 8.93 55.38 9.12333 55.96 9.51C56.54 9.89 56.94 10.4267 57.16 11.12H55.55ZM59.7658 10.15V11.9H62.1158V13.01H59.7658V14.86H62.4158V16H58.3658V9.01H62.4158V10.15H59.7658ZM68.438 9.02V10.15H66.578V16H65.178V10.15H63.318V9.02H68.438ZM73.2423 9.02V16H71.8423V9.02H73.2423ZM79.3755 9.02V10.15H77.5155V16H76.1155V10.15H74.2555V9.02H79.3755ZM86.0198 16.07C85.3665 16.07 84.7665 15.9167 84.2198 15.61C83.6732 15.3033 83.2398 14.88 82.9198 14.34C82.5998 13.7933 82.4398 13.1767 82.4398 12.49C82.4398 11.81 82.5998 11.2 82.9198 10.66C83.2398 10.1133 83.6732 9.68667 84.2198 9.38C84.7665 9.07333 85.3665 8.92 86.0198 8.92C86.6798 8.92 87.2798 9.07333 87.8198 9.38C88.3665 9.68667 88.7965 10.1133 89.1098 10.66C89.4298 11.2 89.5898 11.81 89.5898 12.49C89.5898 13.1767 89.4298 13.7933 89.1098 14.34C88.7965 14.88 88.3665 15.3033 87.8198 15.61C87.2732 15.9167 86.6732 16.07 86.0198 16.07ZM86.0198 14.82C86.4398 14.82 86.8098 14.7267 87.1298 14.54C87.4498 14.3467 87.6998 14.0733 87.8798 13.72C88.0598 13.3667 88.1498 12.9567 88.1498 12.49C88.1498 12.0233 88.0598 11.6167 87.8798 11.27C87.6998 10.9167 87.4498 10.6467 87.1298 10.46C86.8098 10.2733 86.4398 10.18 86.0198 10.18C85.5998 10.18 85.2265 10.2733 84.8998 10.46C84.5798 10.6467 84.3298 10.9167 84.1498 11.27C83.9698 11.6167 83.8798 12.0233 83.8798 12.49C83.8798 12.9567 83.9698 13.3667 84.1498 13.72C84.3298 14.0733 84.5798 14.3467 84.8998 14.54C85.2265 14.7267 85.5998 14.82 86.0198 14.82ZM96.6014 16H95.2014L92.0314 11.21V16H90.6314V9.01H92.0314L95.2014 13.81V9.01H96.6014V16Z" fill="white"/>
<path d="M61.872 25.12C61.44 24.288 60.84 23.664 60.072 23.248C59.304 22.816 58.416 22.6 57.408 22.6C56.304 22.6 55.32 22.848 54.456 23.344C53.592 23.84 52.912 24.544 52.416 25.456C51.936 26.368 51.696 27.424 51.696 28.624C51.696 29.824 51.936 30.888 52.416 31.816C52.912 32.728 53.592 33.432 54.456 33.928C55.32 34.424 56.304 34.672 57.408 34.672C58.896 34.672 60.104 34.256 61.032 33.424C61.96 32.592 62.528 31.464 62.736 30.04H56.472V27.856H65.664V29.992C65.488 31.288 65.024 32.48 64.272 33.568C63.536 34.656 62.568 35.528 61.368 36.184C60.184 36.824 58.864 37.144 57.408 37.144C55.84 37.144 54.408 36.784 53.112 36.064C51.816 35.328 50.784 34.312 50.016 33.016C49.264 31.72 48.888 30.256 48.888 28.624C48.888 26.992 49.264 25.528 50.016 24.232C50.784 22.936 51.816 21.928 53.112 21.208C54.424 20.472 55.856 20.104 57.408 20.104C59.184 20.104 60.76 20.544 62.136 21.424C63.528 22.288 64.536 23.52 65.16 25.12H61.872ZM69.7545 22.024C69.2585 22.024 68.8425 21.856 68.5065 21.52C68.1705 21.184 68.0025 20.768 68.0025 20.272C68.0025 19.776 68.1705 19.36 68.5065 19.024C68.8425 18.688 69.2585 18.52 69.7545 18.52C70.2345 18.52 70.6425 18.688 70.9785 19.024C71.3145 19.36 71.4825 19.776 71.4825 20.272C71.4825 20.768 71.3145 21.184 70.9785 21.52C70.6425 21.856 70.2345 22.024 69.7545 22.024ZM71.0985 23.776V37H68.3625V23.776H71.0985ZM77.8826 26.008V33.328C77.8826 33.824 77.9946 34.184 78.2186 34.408C78.4586 34.616 78.8586 34.72 79.4186 34.72H81.0986V37H78.9386C77.7066 37 76.7626 36.712 76.1066 36.136C75.4506 35.56 75.1226 34.624 75.1226 33.328V26.008H73.5626V23.776H75.1226V20.488H77.8826V23.776H81.0986V26.008H77.8826ZM96.9403 20.32V37H94.2043V29.704H86.3563V37H83.6203V20.32H86.3563V27.472H94.2043V20.32H96.9403ZM112.518 23.776V37H109.782V35.44C109.35 35.984 108.782 36.416 108.078 36.736C107.39 37.04 106.654 37.192 105.87 37.192C104.83 37.192 103.894 36.976 103.062 36.544C102.246 36.112 101.598 35.472 101.118 34.624C100.654 33.776 100.422 32.752 100.422 31.552V23.776H103.134V31.144C103.134 32.328 103.43 33.24 104.022 33.88C104.614 34.504 105.422 34.816 106.446 34.816C107.47 34.816 108.278 34.504 108.87 33.88C109.478 33.24 109.782 32.328 109.782 31.144V23.776H112.518ZM118.864 25.744C119.328 25.104 119.96 24.584 120.76 24.184C121.576 23.768 122.48 23.56 123.472 23.56C124.64 23.56 125.696 23.84 126.64 24.4C127.584 24.96 128.328 25.76 128.872 26.8C129.416 27.824 129.688 29 129.688 30.328C129.688 31.656 129.416 32.848 128.872 33.904C128.328 34.944 127.576 35.76 126.616 36.352C125.672 36.928 124.624 37.216 123.472 37.216C122.448 37.216 121.536 37.016 120.736 36.616C119.952 36.216 119.328 35.704 118.864 35.08V37H116.128V19.24H118.864V25.744ZM126.904 30.328C126.904 29.416 126.712 28.632 126.328 27.976C125.96 27.304 125.464 26.8 124.84 26.464C124.232 26.112 123.576 25.936 122.872 25.936C122.184 25.936 121.528 26.112 120.904 26.464C120.296 26.816 119.8 27.328 119.416 28C119.048 28.672 118.864 29.464 118.864 30.376C118.864 31.288 119.048 32.088 119.416 32.776C119.8 33.448 120.296 33.96 120.904 34.312C121.528 34.664 122.184 34.84 122.872 34.84C123.576 34.84 124.232 34.664 124.84 34.312C125.464 33.944 125.96 33.416 126.328 32.728C126.712 32.04 126.904 31.24 126.904 30.328Z" fill="white"/>
</svg>
