<svg width="160" height="48" viewBox="0 0 160 48" fill="none" xmlns="http://www.w3.org/2000/svg">
<path d="M0 4C0 1.79086 1.79086 0 4 0H156C158.209 0 160 1.79086 160 4V44C160 46.2091 158.209 48 156 48H4C1.79086 48 0 46.2091 0 44V4Z" fill="#FF1F29"/>
<g clip-path="url(#clip0_1_307)">
<path d="M13.6505 11.5636C12.429 12.2881 10.0236 15.0496 10 15.7741V16.9772C10 18.4954 11.4219 19.8359 12.7116 19.8359C14.2613 19.8359 15.5562 18.5505 15.5562 17.0245C15.5562 18.5505 16.7996 19.8359 18.3536 19.8359C19.9032 19.8359 21.1107 18.5505 21.1107 17.0245C21.1107 18.5505 22.4372 19.8359 23.9869 19.8359H24.0149C25.5689 19.8359 26.8945 18.5505 26.8945 17.0245C26.8945 18.5505 28.1029 19.8359 29.6525 19.8359C31.2021 19.8359 32.4499 18.5505 32.4499 17.0245C32.4499 18.5505 33.7405 19.8359 35.2893 19.8359C36.5834 19.8359 38.0053 18.4954 38.0053 16.9772V15.7741C37.9773 15.0496 35.5763 12.2881 34.3504 11.5636C30.5538 11.4271 27.9244 11.4035 24.0053 11.4035C20.0818 11.4079 14.7364 11.4674 13.6557 11.5636H13.6505ZM21.0924 19.1184C20.9432 19.375 20.7591 19.6097 20.5455 19.8157V19.8201C19.9369 20.4129 19.121 20.7447 18.2714 20.745C17.4204 20.7466 16.6032 20.4123 15.9973 19.8149C15.7897 19.6121 15.6128 19.3801 15.4723 19.1262C15.3261 19.3861 15.1223 19.6092 14.9079 19.8149C14.301 20.4109 13.4844 20.7449 12.6337 20.745H12.6294C12.5247 20.7408 12.4215 20.7192 12.324 20.6811C12.2176 21.8267 12.1523 22.9757 12.128 24.126V24.1304C12.1236 24.5915 12.1236 24.9642 12.1184 25.4884C12.1464 28.214 11.8497 34.3162 13.3224 35.816C15.6009 36.3445 19.7939 36.586 23.9948 36.5904H23.9991C28.2052 36.586 32.393 36.3445 34.6715 35.816C36.1441 34.3171 35.8475 28.214 35.8755 25.4884C35.8711 24.9642 35.8711 24.5915 35.8659 24.1304V24.126C35.8438 22.9757 35.7784 21.8265 35.6699 20.6811C35.5725 20.7196 35.4692 20.7412 35.3645 20.745H35.3601C34.5095 20.7449 33.6929 20.4109 33.086 19.8149H33.0904C32.876 19.6092 32.6712 19.387 32.526 19.1262H32.5216C32.3824 19.3798 32.207 19.6118 32.001 19.8149C31.394 20.4107 30.5774 20.7446 29.7269 20.7446C28.8763 20.7446 28.0597 20.4107 27.4527 19.8149C27.2424 19.6113 27.0613 19.3796 26.9146 19.1262L26.905 19.1122C26.7545 19.3817 26.5725 19.6136 26.3669 19.8149C25.76 20.4109 24.9434 20.7449 24.0928 20.745H24.0884C24.0612 20.745 24.0289 20.745 23.9974 20.7406C23.9659 20.745 23.9335 20.745 23.902 20.745H23.8976C23.0484 20.7459 22.233 20.4116 21.6287 19.8149C21.4185 19.6126 21.239 19.3806 21.0959 19.1262L21.0863 19.1122L21.0924 19.1184ZM18.7544 22.1406C19.6793 22.145 20.5 22.1406 21.5203 23.2527C22.3218 23.1714 23.1609 23.1302 23.9991 23.1302C24.8374 23.1302 25.6765 23.1714 26.478 23.2527C27.4991 22.1406 28.319 22.1406 29.2439 22.1406H29.2482C29.6857 22.1406 31.4357 22.1406 32.6529 25.5636L33.961 30.2615C34.9314 33.7571 33.6504 33.8446 32.0561 33.8446C29.6866 33.7571 28.3741 32.0351 28.3741 30.3123C27.0616 30.5319 25.5295 30.6369 23.9991 30.6369C22.4687 30.6369 20.9366 30.5319 19.6285 30.3123C19.6285 32.0351 18.316 33.7571 15.9465 33.8446C14.347 33.8402 13.066 33.7571 14.0364 30.2615L15.3445 25.5636C16.566 22.1406 18.316 22.1406 18.7535 22.1406H18.7544ZM24 24.8339C23.9956 24.8339 21.5071 27.1264 21.0565 27.9375L22.6875 27.8736V29.2955C22.6875 29.3646 23.3446 29.3366 24 29.3051C24.6554 29.3366 25.3081 29.3646 25.3081 29.2955V27.8736L26.9435 27.9375C26.4929 27.1264 24 24.8339 24 24.8339Z" fill="white"/>
</g>
<path d="M55.55 11.12C55.39 10.8267 55.17 10.6033 54.89 10.45C54.61 10.2967 54.2833 10.22 53.91 10.22C53.4967 10.22 53.13 10.3133 52.81 10.5C52.49 10.6867 52.24 10.9533 52.06 11.3C51.88 11.6467 51.79 12.0467 51.79 12.5C51.79 12.9667 51.88 13.3733 52.06 13.72C52.2467 14.0667 52.5033 14.3333 52.83 14.52C53.1567 14.7067 53.5367 14.8 53.97 14.8C54.5033 14.8 54.94 14.66 55.28 14.38C55.62 14.0933 55.8433 13.6967 55.95 13.19H53.55V12.12H57.33V13.34C57.2367 13.8267 57.0367 14.2767 56.73 14.69C56.4233 15.1033 56.0267 15.4367 55.54 15.69C55.06 15.9367 54.52 16.06 53.92 16.06C53.2467 16.06 52.6367 15.91 52.09 15.61C51.55 15.3033 51.1233 14.88 50.81 14.34C50.5033 13.8 50.35 13.1867 50.35 12.5C50.35 11.8133 50.5033 11.2 50.81 10.66C51.1233 10.1133 51.55 9.69 52.09 9.39C52.6367 9.08333 53.2433 8.93 53.91 8.93C54.6967 8.93 55.38 9.12333 55.96 9.51C56.54 9.89 56.94 10.4267 57.16 11.12H55.55ZM59.7658 10.15V11.9H62.1158V13.01H59.7658V14.86H62.4158V16H58.3658V9.01H62.4158V10.15H59.7658ZM68.438 9.02V10.15H66.578V16H65.178V10.15H63.318V9.02H68.438ZM73.2423 9.02V16H71.8423V9.02H73.2423ZM79.3755 9.02V10.15H77.5155V16H76.1155V10.15H74.2555V9.02H79.3755ZM86.0198 16.07C85.3665 16.07 84.7665 15.9167 84.2198 15.61C83.6732 15.3033 83.2398 14.88 82.9198 14.34C82.5998 13.7933 82.4398 13.1767 82.4398 12.49C82.4398 11.81 82.5998 11.2 82.9198 10.66C83.2398 10.1133 83.6732 9.68667 84.2198 9.38C84.7665 9.07333 85.3665 8.92 86.0198 8.92C86.6798 8.92 87.2798 9.07333 87.8198 9.38C88.3665 9.68667 88.7965 10.1133 89.1098 10.66C89.4298 11.2 89.5898 11.81 89.5898 12.49C89.5898 13.1767 89.4298 13.7933 89.1098 14.34C88.7965 14.88 88.3665 15.3033 87.8198 15.61C87.2732 15.9167 86.6732 16.07 86.0198 16.07ZM86.0198 14.82C86.4398 14.82 86.8098 14.7267 87.1298 14.54C87.4498 14.3467 87.6998 14.0733 87.8798 13.72C88.0598 13.3667 88.1498 12.9567 88.1498 12.49C88.1498 12.0233 88.0598 11.6167 87.8798 11.27C87.6998 10.9167 87.4498 10.6467 87.1298 10.46C86.8098 10.2733 86.4398 10.18 86.0198 10.18C85.5998 10.18 85.2265 10.2733 84.8998 10.46C84.5798 10.6467 84.3298 10.9167 84.1498 11.27C83.9698 11.6167 83.8798 12.0233 83.8798 12.49C83.8798 12.9567 83.9698 13.3667 84.1498 13.72C84.3298 14.0733 84.5798 14.3467 84.8998 14.54C85.2265 14.7267 85.5998 14.82 86.0198 14.82ZM96.6014 16H95.2014L92.0314 11.21V16H90.6314V9.01H92.0314L95.2014 13.81V9.01H96.6014V16Z" fill="white"/>
<path d="M54.536 20.32V37H51.8V20.32H54.536ZM61.3201 26.008V33.328C61.3201 33.824 61.4321 34.184 61.6561 34.408C61.8961 34.616 62.2961 34.72 62.8561 34.72H64.5361V37H62.3761C61.1441 37 60.2001 36.712 59.5441 36.136C58.8881 35.56 58.5601 34.624 58.5601 33.328V26.008H57.0001V23.776H58.5601V20.488H61.3201V23.776H64.5361V26.008H61.3201ZM66.1458 30.376C66.1458 29.016 66.4178 27.824 66.9618 26.8C67.5218 25.76 68.2898 24.96 69.2658 24.4C70.2418 23.84 71.3618 23.56 72.6258 23.56C74.2258 23.56 75.5458 23.944 76.5858 24.712C77.6418 25.464 78.3538 26.544 78.7218 27.952H75.7698C75.5298 27.296 75.1458 26.784 74.6178 26.416C74.0898 26.048 73.4258 25.864 72.6258 25.864C71.5058 25.864 70.6098 26.264 69.9378 27.064C69.2818 27.848 68.9538 28.952 68.9538 30.376C68.9538 31.8 69.2818 32.912 69.9378 33.712C70.6098 34.512 71.5058 34.912 72.6258 34.912C74.2098 34.912 75.2578 34.216 75.7698 32.824H78.7218C78.3378 34.168 77.6178 35.24 76.5618 36.04C75.5058 36.824 74.1938 37.216 72.6258 37.216C71.3618 37.216 70.2418 36.936 69.2658 36.376C68.2898 35.8 67.5218 35 66.9618 33.976C66.4178 32.936 66.1458 31.736 66.1458 30.376ZM88.2884 23.56C89.2964 23.56 90.1924 23.776 90.9764 24.208C91.7764 24.64 92.4004 25.28 92.8484 26.128C93.3124 26.976 93.5444 28 93.5444 29.2V37H90.8324V29.608C90.8324 28.424 90.5364 27.52 89.9444 26.896C89.3524 26.256 88.5444 25.936 87.5204 25.936C86.4964 25.936 85.6804 26.256 85.0724 26.896C84.4804 27.52 84.1844 28.424 84.1844 29.608V37H81.4484V19.24H84.1844V25.312C84.6484 24.752 85.2324 24.32 85.9364 24.016C86.6564 23.712 87.4404 23.56 88.2884 23.56ZM98.1384 37.168C97.6424 37.168 97.2264 37 96.8904 36.664C96.5544 36.328 96.3864 35.912 96.3864 35.416C96.3864 34.92 96.5544 34.504 96.8904 34.168C97.2264 33.832 97.6424 33.664 98.1384 33.664C98.6184 33.664 99.0264 33.832 99.3624 34.168C99.6984 34.504 99.8664 34.92 99.8664 35.416C99.8664 35.912 99.6984 36.328 99.3624 36.664C99.0264 37 98.6184 37.168 98.1384 37.168ZM104.215 22.024C103.719 22.024 103.303 21.856 102.967 21.52C102.631 21.184 102.463 20.768 102.463 20.272C102.463 19.776 102.631 19.36 102.967 19.024C103.303 18.688 103.719 18.52 104.215 18.52C104.695 18.52 105.103 18.688 105.439 19.024C105.775 19.36 105.943 19.776 105.943 20.272C105.943 20.768 105.775 21.184 105.439 21.52C105.103 21.856 104.695 22.024 104.215 22.024ZM105.559 23.776V37H102.823V23.776H105.559ZM114.888 37.216C113.64 37.216 112.512 36.936 111.504 36.376C110.496 35.8 109.704 35 109.128 33.976C108.552 32.936 108.264 31.736 108.264 30.376C108.264 29.032 108.56 27.84 109.152 26.8C109.744 25.76 110.552 24.96 111.576 24.4C112.6 23.84 113.744 23.56 115.008 23.56C116.272 23.56 117.416 23.84 118.44 24.4C119.464 24.96 120.272 25.76 120.864 26.8C121.456 27.84 121.752 29.032 121.752 30.376C121.752 31.72 121.448 32.912 120.84 33.952C120.232 34.992 119.4 35.8 118.344 36.376C117.304 36.936 116.152 37.216 114.888 37.216ZM114.888 34.84C115.592 34.84 116.248 34.672 116.856 34.336C117.48 34 117.984 33.496 118.368 32.824C118.752 32.152 118.944 31.336 118.944 30.376C118.944 29.416 118.76 28.608 118.392 27.952C118.024 27.28 117.536 26.776 116.928 26.44C116.32 26.104 115.664 25.936 114.96 25.936C114.256 25.936 113.6 26.104 112.992 26.44C112.4 26.776 111.928 27.28 111.576 27.952C111.224 28.608 111.048 29.416 111.048 30.376C111.048 31.8 111.408 32.904 112.128 33.688C112.864 34.456 113.784 34.84 114.888 34.84Z" fill="white"/>
<defs>
<clipPath id="clip0_1_307">
<rect width="28" height="28" fill="white" transform="translate(10 10)"/>
</clipPath>
</defs>
</svg>
