<svg width="160" height="48" viewBox="0 0 160 48" fill="none" xmlns="http://www.w3.org/2000/svg">
<path d="M0 4C0 1.79086 1.79086 0 4 0H156C158.209 0 160 1.79086 160 4V44C160 46.2091 158.209 48 156 48H4C1.79086 48 0 46.2091 0 44V4Z" fill="#009FFF"/>
<path d="M55.55 11.12C55.39 10.8267 55.17 10.6033 54.89 10.45C54.61 10.2967 54.2833 10.22 53.91 10.22C53.4967 10.22 53.13 10.3133 52.81 10.5C52.49 10.6867 52.24 10.9533 52.06 11.3C51.88 11.6467 51.79 12.0467 51.79 12.5C51.79 12.9667 51.88 13.3733 52.06 13.72C52.2467 14.0667 52.5033 14.3333 52.83 14.52C53.1567 14.7067 53.5367 14.8 53.97 14.8C54.5033 14.8 54.94 14.66 55.28 14.38C55.62 14.0933 55.8433 13.6967 55.95 13.19H53.55V12.12H57.33V13.34C57.2367 13.8267 57.0367 14.2767 56.73 14.69C56.4233 15.1033 56.0267 15.4367 55.54 15.69C55.06 15.9367 54.52 16.06 53.92 16.06C53.2467 16.06 52.6367 15.91 52.09 15.61C51.55 15.3033 51.1233 14.88 50.81 14.34C50.5033 13.8 50.35 13.1867 50.35 12.5C50.35 11.8133 50.5033 11.2 50.81 10.66C51.1233 10.1133 51.55 9.69 52.09 9.39C52.6367 9.08333 53.2433 8.93 53.91 8.93C54.6967 8.93 55.38 9.12333 55.96 9.51C56.54 9.89 56.94 10.4267 57.16 11.12H55.55ZM59.7658 10.15V11.9H62.1158V13.01H59.7658V14.86H62.4158V16H58.3658V9.01H62.4158V10.15H59.7658ZM68.438 9.02V10.15H66.578V16H65.178V10.15H63.318V9.02H68.438ZM73.2423 9.02V16H71.8423V9.02H73.2423ZM79.3755 9.02V10.15H77.5155V16H76.1155V10.15H74.2555V9.02H79.3755ZM86.0198 16.07C85.3665 16.07 84.7665 15.9167 84.2198 15.61C83.6732 15.3033 83.2398 14.88 82.9198 14.34C82.5998 13.7933 82.4398 13.1767 82.4398 12.49C82.4398 11.81 82.5998 11.2 82.9198 10.66C83.2398 10.1133 83.6732 9.68667 84.2198 9.38C84.7665 9.07333 85.3665 8.92 86.0198 8.92C86.6798 8.92 87.2798 9.07333 87.8198 9.38C88.3665 9.68667 88.7965 10.1133 89.1098 10.66C89.4298 11.2 89.5898 11.81 89.5898 12.49C89.5898 13.1767 89.4298 13.7933 89.1098 14.34C88.7965 14.88 88.3665 15.3033 87.8198 15.61C87.2732 15.9167 86.6732 16.07 86.0198 16.07ZM86.0198 14.82C86.4398 14.82 86.8098 14.7267 87.1298 14.54C87.4498 14.3467 87.6998 14.0733 87.8798 13.72C88.0598 13.3667 88.1498 12.9567 88.1498 12.49C88.1498 12.0233 88.0598 11.6167 87.8798 11.27C87.6998 10.9167 87.4498 10.6467 87.1298 10.46C86.8098 10.2733 86.4398 10.18 86.0198 10.18C85.5998 10.18 85.2265 10.2733 84.8998 10.46C84.5798 10.6467 84.3298 10.9167 84.1498 11.27C83.9698 11.6167 83.8798 12.0233 83.8798 12.49C83.8798 12.9567 83.9698 13.3667 84.1498 13.72C84.3298 14.0733 84.5798 14.3467 84.8998 14.54C85.2265 14.7267 85.5998 14.82 86.0198 14.82ZM96.6014 16H95.2014L92.0314 11.21V16H90.6314V9.01H92.0314L95.2014 13.81V9.01H96.6014V16Z" fill="white"/>
<path d="M58.464 37L54.624 30.328H52.536V37H49.8V20.32H55.56C56.84 20.32 57.92 20.544 58.8 20.992C59.696 21.44 60.36 22.04 60.792 22.792C61.24 23.544 61.464 24.384 61.464 25.312C61.464 26.4 61.144 27.392 60.504 28.288C59.88 29.168 58.912 29.768 57.6 30.088L61.728 37H58.464ZM52.536 28.144H55.56C56.584 28.144 57.352 27.888 57.864 27.376C58.392 26.864 58.656 26.176 58.656 25.312C58.656 24.448 58.4 23.776 57.888 23.296C57.376 22.8 56.6 22.552 55.56 22.552H52.536V28.144ZM70.7001 37.216C69.4521 37.216 68.3241 36.936 67.3161 36.376C66.3081 35.8 65.5161 35 64.9401 33.976C64.3641 32.936 64.0761 31.736 64.0761 30.376C64.0761 29.032 64.3721 27.84 64.9641 26.8C65.5561 25.76 66.3641 24.96 67.3881 24.4C68.4121 23.84 69.5561 23.56 70.8201 23.56C72.0841 23.56 73.2281 23.84 74.2521 24.4C75.2761 24.96 76.0841 25.76 76.6761 26.8C77.2681 27.84 77.5641 29.032 77.5641 30.376C77.5641 31.72 77.2601 32.912 76.6521 33.952C76.0441 34.992 75.2121 35.8 74.1561 36.376C73.1161 36.936 71.9641 37.216 70.7001 37.216ZM70.7001 34.84C71.4041 34.84 72.0601 34.672 72.6681 34.336C73.2921 34 73.7961 33.496 74.1801 32.824C74.5641 32.152 74.7561 31.336 74.7561 30.376C74.7561 29.416 74.5721 28.608 74.2041 27.952C73.8361 27.28 73.3481 26.776 72.7401 26.44C72.1321 26.104 71.4761 25.936 70.7721 25.936C70.0681 25.936 69.4121 26.104 68.8041 26.44C68.2121 26.776 67.7401 27.28 67.3881 27.952C67.0361 28.608 66.8601 29.416 66.8601 30.376C66.8601 31.8 67.2201 32.904 67.9401 33.688C68.6761 34.456 69.5961 34.84 70.7001 34.84ZM83.0048 25.744C83.4688 25.104 84.1008 24.584 84.9008 24.184C85.7168 23.768 86.6208 23.56 87.6128 23.56C88.7808 23.56 89.8368 23.84 90.7808 24.4C91.7248 24.96 92.4688 25.76 93.0128 26.8C93.5568 27.824 93.8288 29 93.8288 30.328C93.8288 31.656 93.5568 32.848 93.0128 33.904C92.4688 34.944 91.7168 35.76 90.7568 36.352C89.8128 36.928 88.7648 37.216 87.6128 37.216C86.5888 37.216 85.6768 37.016 84.8768 36.616C84.0928 36.216 83.4688 35.704 83.0048 35.08V37H80.2688V19.24H83.0048V25.744ZM91.0448 30.328C91.0448 29.416 90.8528 28.632 90.4688 27.976C90.1008 27.304 89.6048 26.8 88.9808 26.464C88.3728 26.112 87.7168 25.936 87.0128 25.936C86.3248 25.936 85.6688 26.112 85.0448 26.464C84.4368 26.816 83.9408 27.328 83.5568 28C83.1888 28.672 83.0048 29.464 83.0048 30.376C83.0048 31.288 83.1888 32.088 83.5568 32.776C83.9408 33.448 84.4368 33.96 85.0448 34.312C85.6688 34.664 86.3248 34.84 87.0128 34.84C87.7168 34.84 88.3728 34.664 88.9808 34.312C89.6048 33.944 90.1008 33.416 90.4688 32.728C90.8528 32.04 91.0448 31.24 91.0448 30.328ZM99.2704 19.24V37H96.5344V19.24H99.2704ZM108.599 37.216C107.351 37.216 106.223 36.936 105.215 36.376C104.207 35.8 103.415 35 102.839 33.976C102.263 32.936 101.975 31.736 101.975 30.376C101.975 29.032 102.271 27.84 102.863 26.8C103.455 25.76 104.263 24.96 105.287 24.4C106.311 23.84 107.455 23.56 108.719 23.56C109.983 23.56 111.127 23.84 112.151 24.4C113.175 24.96 113.983 25.76 114.575 26.8C115.167 27.84 115.463 29.032 115.463 30.376C115.463 31.72 115.159 32.912 114.551 33.952C113.943 34.992 113.111 35.8 112.055 36.376C111.015 36.936 109.863 37.216 108.599 37.216ZM108.599 34.84C109.303 34.84 109.959 34.672 110.567 34.336C111.191 34 111.695 33.496 112.079 32.824C112.463 32.152 112.655 31.336 112.655 30.376C112.655 29.416 112.471 28.608 112.103 27.952C111.735 27.28 111.247 26.776 110.639 26.44C110.031 26.104 109.375 25.936 108.671 25.936C107.967 25.936 107.311 26.104 106.703 26.44C106.111 26.776 105.639 27.28 105.287 27.952C104.935 28.608 104.759 29.416 104.759 30.376C104.759 31.8 105.119 32.904 105.839 33.688C106.575 34.456 107.495 34.84 108.599 34.84ZM123.831 30.304L128.103 37H125.007L122.151 32.512L119.463 37H116.607L120.879 30.496L116.607 23.776H119.703L122.559 28.264L125.247 23.776H128.103L123.831 30.304Z" fill="white"/>
<path fill-rule="evenodd" clip-rule="evenodd" d="M15.9467 10.0038L37.9995 15.9129L35.6126 24.8209L22.4691 21.2991L21.7955 23.8127L12.8862 21.4255L15.9467 10.0038ZM32.0745 37.9746L10.0217 32.0656L12.4086 23.1575L25.5521 26.6793L26.2256 24.1656L35.1349 26.5529L32.0745 37.9746Z" fill="white"/>
</svg>
